<?xml version="1.0" encoding="UTF-8" standalone="no"?>
<svg
   xmlns:dc="http://purl.org/dc/elements/1.1/"
   xmlns:cc="http://creativecommons.org/ns#"
   xmlns:rdf="http://www.w3.org/1999/02/22-rdf-syntax-ns#"
   xmlns:svg="http://www.w3.org/2000/svg"
   xmlns="http://www.w3.org/2000/svg"
   xmlns:sodipodi="http://sodipodi.sourceforge.net/DTD/sodipodi-0.dtd"
   xmlns:inkscape="http://www.inkscape.org/namespaces/inkscape"
   width="2000pt"
   height="750pt"
   version="1.1"
   viewBox="0 0 2000 750"
   id="svg76"
   sodipodi:docname="readme-header.svg"
   inkscape:version="0.92.5 (0.92.5+69)">
  <metadata
     id="metadata80">
    <rdf:RDF>
      <cc:Work
         rdf:about="">
        <dc:format>image/svg+xml</dc:format>
        <dc:type
           rdf:resource="http://purl.org/dc/dcmitype/StillImage" />
        <dc:title></dc:title>
      </cc:Work>
    </rdf:RDF>
  </metadata>
  <sodipodi:namedview
     pagecolor="#ffffff"
     bordercolor="#666666"
     borderopacity="1"
     objecttolerance="10"
     gridtolerance="10"
     guidetolerance="10"
     inkscape:pageopacity="1"
     inkscape:pageshadow="2"
     inkscape:window-width="3840"
     inkscape:window-height="2036"
     id="namedview78"
     showgrid="true"
     fit-margin-top="0"
     fit-margin-left="0"
     fit-margin-right="0"
     fit-margin-bottom="0"
     inkscape:zoom="0.715188"
     inkscape:cx="1292.0904"
     inkscape:cy="817.85535"
     inkscape:window-x="0"
     inkscape:window-y="64"
     inkscape:window-maximized="1"
     inkscape:current-layer="svg76">
    <inkscape:grid
       type="xygrid"
       id="grid904"
       spacingx="150"
       spacingy="150"
       originx="0"
       empspacing="0"
       dotted="false"
       enabled="true" />
  </sodipodi:namedview>
  <defs
     id="defs38">
    <symbol
       id="l"
       overflow="visible"
       style="overflow:visible">
      <path
         d="m 37.516,-2.25 c -1.9297,1.0117 -3.9453,1.7734 -6.0469,2.2812 -2.0938,0.50781 -4.2812,0.76562 -6.5625,0.76562 -6.793,0 -12.18,-1.8984 -16.156,-5.7031 -3.9688,-3.8008 -5.9531,-8.957 -5.9531,-15.469 0,-6.5195 1.9844,-11.68 5.9531,-15.484 3.9766,-3.8008 9.3633,-5.7031 16.156,-5.7031 2.2812,0 4.4688,0.25781 6.5625,0.76562 2.1016,0.51172 4.1172,1.2656 6.0469,2.2656 v 8.4531 c -1.9492,-1.332 -3.8711,-2.3047 -5.7656,-2.9219 -1.8984,-0.625 -3.8906,-0.9375 -5.9844,-0.9375 -3.7617,0 -6.7188,1.2031 -8.875,3.6094 -2.1484,2.4062 -3.2188,5.7266 -3.2188,9.9531 0,4.2109 1.0703,7.5156 3.2188,9.9219 2.1562,2.4062 5.1133,3.6094 8.875,3.6094 2.0938,0 4.0859,-0.30469 5.9844,-0.92188 1.8945,-0.625 3.8164,-1.5977 5.7656,-2.9219 z"
         id="path2"
         inkscape:connector-curvature="0" />
    </symbol>
    <symbol
       id="c"
       overflow="visible"
       style="overflow:visible">
      <path
         d="m 27.453,-22.281 c -0.85547,-0.40625 -1.7109,-0.70312 -2.5625,-0.89062 -0.84375,-0.19531 -1.6953,-0.29688 -2.5469,-0.29688 -2.5234,0 -4.4609,0.80859 -5.8125,2.4219 -1.3555,1.6172 -2.0312,3.9297 -2.0312,6.9375 V -1e-4 H 4.703 v -30.625 h 9.7969 v 5.0312 c 1.25,-2.0078 2.6914,-3.4727 4.3281,-4.3906 1.6328,-0.91406 3.5859,-1.375 5.8594,-1.375 0.33203,0 0.6875,0.01563 1.0625,0.04687 0.38281,0.02344 0.94141,0.07813 1.6719,0.17188 z"
         id="path5"
         inkscape:connector-curvature="0" />
    </symbol>
    <symbol
       id="a"
       overflow="visible"
       style="overflow:visible">
      <path
         d="m 35.281,-15.391 v 2.7812 H 12.39 c 0.23828,2.3047 1.0664,4.0273 2.4844,5.1719 1.4258,1.1484 3.4141,1.7188 5.9688,1.7188 2.0508,0 4.1562,-0.30078 6.3125,-0.90625 2.1641,-0.61328 4.3906,-1.5391 6.6719,-2.7812 v 7.5469 c -2.3125,0.875 -4.6328,1.5391 -6.9531,1.9844 -2.3125,0.44531 -4.625,0.67188 -6.9375,0.67188 -5.543,0 -9.8516,-1.4062 -12.922,-4.2188 -3.0742,-2.8203 -4.6094,-6.7734 -4.6094,-11.859 0,-5 1.5039,-8.9258 4.5156,-11.781 3.0195,-2.8633 7.1758,-4.2969 12.469,-4.2969 4.8125,0 8.6602,1.4492 11.547,4.3438 2.8945,2.8984 4.3438,6.7734 4.3438,11.625 z m -10.062,-3.2656 c 0,-1.8516 -0.54688,-3.3477 -1.6406,-4.4844 -1.0859,-1.1445 -2.5,-1.7188 -4.25,-1.7188 -1.8984,0 -3.4375,0.53906 -4.625,1.6094 -1.1797,1.0625 -1.9141,2.5938 -2.2031,4.5938 z"
         id="path8"
         inkscape:connector-curvature="0" />
    </symbol>
    <symbol
       id="h"
       overflow="visible"
       style="overflow:visible">
      <path
         d="m 18.438,-13.781 c -2.043,0 -3.5781,0.35156 -4.6094,1.0469 -1.0312,0.6875 -1.5469,1.7031 -1.5469,3.0469 0,1.2422 0.41016,2.2148 1.2344,2.9219 0.83203,0.69922 1.9883,1.0469 3.4688,1.0469 1.8438,0 3.3906,-0.66016 4.6406,-1.9844 1.2578,-1.3203 1.8906,-2.9727 1.8906,-4.9531 v -1.125 z m 14.953,-3.6875 V 5e-4 h -9.875 v -4.5469 c -1.3125,1.8672 -2.793,3.2266 -4.4375,4.0781 -1.6367,0.84375 -3.6328,1.2656 -5.9844,1.2656 -3.168,0 -5.7422,-0.92578 -7.7188,-2.7812 -1.9805,-1.8516 -2.9688,-4.2539 -2.9688,-7.2031 0,-3.5938 1.2344,-6.2266 3.7031,-7.9062 2.4688,-1.6758 6.3477,-2.5156 11.641,-2.5156 h 5.7656 v -0.76562 c 0,-1.5508 -0.60938,-2.6875 -1.8281,-3.4062 -1.21872,-0.7187 -3.125,-1.0781 -5.7188,-1.0781 -2.0938,0 -4.0469,0.21484 -5.8594,0.64062 -1.8047,0.41797 -3.4766,1.043 -5.0156,1.875 v -7.4688 c 2.0938,-0.50781 4.1953,-0.89453 6.3125,-1.1562 2.1133,-0.25781 4.2266,-0.39062 6.3438,-0.39062 5.5195,0 9.5039,1.0898 11.953,3.2656 2.457,2.1797 3.6875,5.7188 3.6875,10.625 z"
         id="path11"
         inkscape:connector-curvature="0" />
    </symbol>
    <symbol
       id="b"
       overflow="visible"
       style="overflow:visible">
      <path
         d="m 15.391,-39.328 v 8.7031 h 10.094 v 7 H 15.391 v 12.984 c 0,1.4297 0.28125,2.3906 0.84375,2.8906 0.57031,0.5 1.6953,0.75 3.375,0.75 h 5.0312 v 7 h -8.3906 c -3.8672,0 -6.6055,-0.80469 -8.2188,-2.4219 -1.6172,-1.6133 -2.4219,-4.3516 -2.4219,-8.2188 v -12.984 h -4.875 v -7 h 4.875 v -8.7031 z"
         id="path14"
         inkscape:connector-curvature="0" />
    </symbol>
    <symbol
       id="g"
       overflow="visible"
       style="overflow:visible">
      <path
         d="m 25.547,-26.141 v -16.406 h 9.8438 V 0 H 25.547 v -4.4375 c -1.3555,1.8125 -2.8438,3.1406 -4.4688,3.9844 -1.6172,0.83203 -3.4922,1.25 -5.625,1.25 -3.7734,0 -6.8711,-1.5 -9.2969,-4.5 -2.4297,-3 -3.6406,-6.8594 -3.6406,-11.578 0,-4.7266 1.2109,-8.5859 3.6406,-11.578 2.4258,-3 5.5234,-4.5 9.2969,-4.5 2.1133,0 3.9844,0.42188 5.6094,1.2656 1.6328,0.84375 3.1289,2.1641 4.4844,3.9531 z m -6.4531,19.828 c 2.0938,0 3.6914,-0.76562 4.7969,-2.2969 1.1016,-1.5312 1.6562,-3.7539 1.6562,-6.6719 0,-2.9141 -0.55469,-5.1406 -1.6562,-6.6719 -1.1055,-1.5312 -2.7031,-2.2969 -4.7969,-2.2969 -2.0859,0 -3.6797,0.76562 -4.7812,2.2969 -1.1055,1.5312 -1.6562,3.7578 -1.6562,6.6719 0,2.918 0.55078,5.1406 1.6562,6.6719 1.1016,1.5312 2.6953,2.2969 4.7812,2.2969 z"
         id="path17"
         inkscape:connector-curvature="0" />
    </symbol>
    <symbol
       id="f"
       overflow="visible"
       style="overflow:visible">
      <path
         d="m 21,-6.3125 c 2.0938,0 3.6914,-0.76562 4.7969,-2.2969 1.1016,-1.5312 1.6562,-3.7539 1.6562,-6.6719 0,-2.9141 -0.55469,-5.1406 -1.6562,-6.6719 -1.1055,-1.5312 -2.7031,-2.2969 -4.7969,-2.2969 -2.0938,0 -3.7031,0.77344 -4.8281,2.3125 -1.1172,1.5312 -1.6719,3.75 -1.6719,6.6562 0,2.8984 0.55469,5.1172 1.6719,6.6562 1.125,1.543 2.7344,2.3125 4.8281,2.3125 z m -6.5,-19.828 c 1.3438,-1.7891 2.832,-3.1094 4.4688,-3.9531 1.6445,-0.84375 3.5352,-1.2656 5.6719,-1.2656 3.7695,0 6.8672,1.5 9.2969,4.5 2.4258,2.9922 3.6406,6.8516 3.6406,11.578 0,4.7188 -1.2148,8.5781 -3.6406,11.578 -2.4297,3 -5.5273,4.5 -9.2969,4.5 -2.1367,0 -4.0273,-0.42188 -5.6719,-1.2656 C 17.3321,-1.32036 15.8438,-2.6446 14.5,-4.4376 V -1e-4 H 4.7031 v -42.547 H 14.5 Z"
         id="path20"
         inkscape:connector-curvature="0" />
    </symbol>
    <symbol
       id="e"
       overflow="visible"
       style="overflow:visible">
      <path
         d="m 0.6875,-30.625 h 9.7812 l 8.2344,20.781 7,-20.781 H 35.5 L 22.609,2.906 c -1.293,3.4062 -2.8047,5.7852 -4.5312,7.1406 -1.7188,1.3633 -3.9922,2.0469 -6.8125,2.0469 H 5.6091 V 5.656 h 3.0625 c 1.6562,0 2.8594,-0.26562 3.6094,-0.79688 0.75781,-0.52344 1.3516,-1.4648 1.7812,-2.8281 l 0.26562,-0.85938 z"
         id="path23"
         inkscape:connector-curvature="0" />
    </symbol>
    <symbol
       id="d"
       overflow="visible"
       style="overflow:visible">
      <path
         d="m 0.28125,-40.828 h 10.578 l 10.828,30.141 10.797,-30.141 h 10.578 L 27.95325,0 h -12.562 z"
         id="path26"
         inkscape:connector-curvature="0" />
    </symbol>
    <symbol
       id="k"
       overflow="visible"
       style="overflow:visible">
      <path
         d="m 29.453,-29.672 v 7.9844 c -1.3359,-0.90625 -2.6719,-1.5781 -4.0156,-2.0156 -1.3359,-0.4375 -2.7188,-0.65625 -4.1562,-0.65625 -2.7422,0 -4.8711,0.79688 -6.3906,2.3906 -1.5234,1.5938 -2.2812,3.8242 -2.2812,6.6875 0,2.8555 0.75781,5.0859 2.2812,6.6875 1.5195,1.5938 3.6484,2.3906 6.3906,2.3906 1.5312,0 2.9844,-0.22656 4.3594,-0.6875 1.375,-0.45703 2.6445,-1.1328 3.8125,-2.0312 v 8.0156 c -1.5312,0.5625 -3.0898,0.98438 -4.6719,1.2656 -1.5742,0.28906 -3.1523,0.4375 -4.7344,0.4375 -5.5234,0 -9.8438,-1.4141 -12.969,-4.25 -3.1172,-2.8438 -4.6719,-6.7852 -4.6719,-11.828 0,-5.0508 1.5547,-8.9922 4.6719,-11.828 3.125,-2.832 7.4453,-4.25 12.969,-4.25 1.6016,0 3.1797,0.14062 4.7344,0.42188 1.5625,0.28125 3.1172,0.70312 4.6719,1.2656 z"
         id="path29"
         inkscape:connector-curvature="0" />
    </symbol>
    <symbol
       id="j"
       overflow="visible"
       style="overflow:visible">
      <path
         d="m 19.281,-24.359 c -2.168,0 -3.8242,0.78125 -4.9688,2.3438 -1.1367,1.5547 -1.7031,3.7969 -1.7031,6.7344 0,2.9297 0.56641,5.1719 1.7031,6.7344 1.1445,1.5625 2.8008,2.3438 4.9688,2.3438 2.1328,0 3.7656,-0.78125 4.8906,-2.3438 1.1328,-1.5625 1.7031,-3.8047 1.7031,-6.7344 0,-2.9375 -0.57031,-5.1797 -1.7031,-6.7344 -1.125,-1.5625 -2.7578,-2.3438 -4.8906,-2.3438 z m 0,-7 c 5.2695,0 9.3828,1.4219 12.344,4.2656 2.957,2.8438 4.4375,6.7812 4.4375,11.812 0,5.0308 -1.4805,8.9688 -4.4375,11.812 -2.9609,2.8438 -7.0742,4.2656 -12.344,4.2656 -5.293,0 -9.4297,-1.4219 -12.406,-4.2656 -2.9805,-2.8438 -4.4688,-6.7812 -4.4688,-11.812 0,-5.0308 1.4883,-8.9688 4.4688,-11.812 2.9766,-2.8438 7.1133,-4.2656 12.406,-4.2656 z"
         id="path32"
         inkscape:connector-curvature="0" />
    </symbol>
    <symbol
       id="i"
       overflow="visible"
       style="overflow:visible">
      <path
         d="m 28.625,-29.672 v 7.4375 c -2.0938,-0.875 -4.1172,-1.5312 -6.0625,-1.9688 -1.9492,-0.4375 -3.793,-0.65625 -5.5312,-0.65625 -1.8555,0 -3.2344,0.23438 -4.1406,0.70312 -0.89844,0.46094 -1.3438,1.1719 -1.3438,2.1406 0,0.78125 0.33594,1.3867 1.0156,1.8125 0.6875,0.41797 1.9141,0.72656 3.6875,0.92188 l 1.7188,0.25 c 5.0078,0.63672 8.3789,1.6836 10.109,3.1406 1.7383,1.4609 2.6094,3.7461 2.6094,6.8594 0,3.2734 -1.2031,5.7305 -3.6094,7.375 -2.4062,1.6367 -6,2.4531 -10.781,2.4531 -2.0234,0 -4.1172,-0.16406 -6.2812,-0.48438 -2.1562,-0.32031 -4.375,-0.80078 -6.6562,-1.4375 v -7.4375 c 1.957,0.94922 3.957,1.6641 6,2.1406 2.0508,0.46875 4.1328,0.70312 6.25,0.70312 1.9141,0 3.3594,-0.25781 4.3281,-0.78125 0.96875,-0.53125 1.4531,-1.3164 1.4531,-2.3594 0,-0.875 -0.33594,-1.5234 -1,-1.9531 -0.66797,-0.42578 -1.9961,-0.75781 -3.9844,-1 l -1.7188,-0.21875 c -4.3555,-0.55078 -7.4062,-1.5625 -9.1562,-3.0312 -1.75,-1.4766 -2.625,-3.7227 -2.625,-6.7344 0,-3.2383 1.1094,-5.6406 3.3281,-7.2031 2.2266,-1.5703 5.6406,-2.3594 10.234,-2.3594 1.8008,0 3.6914,0.13672 5.6719,0.40625 1.9883,0.27344 4.1484,0.69922 6.4844,1.2812 z"
         id="path35"
         inkscape:connector-curvature="0" />
    </symbol>
  </defs>
  <rect
     style="opacity:1;fill:#ecf0f1;fill-opacity:1;stroke:none;stroke-width:0.075;stroke-miterlimit:4;stroke-dasharray:none;stroke-opacity:1"
     id="rect843"
     width="2178.6506"
     height="1005.6796"
     x="-93.253235"
     y="-150.00002" />
  <g
     id="g74"
     transform="matrix(0.9156471,0,0,0.9156471,677.55387,4.3774172)">
    <path
       d="M 608.61,451.98 H 594.051 L 579.715,206.14 h 2.1289 c 4.7031,0 8.5117,-3.8086 8.5117,-8.3984 v -35.617 c 0,-2.1289 -1.793,-3.8086 -3.8086,-3.8086 h -15.793 c -2.1289,0 -3.8086,1.6797 -3.8086,3.8086 v 17.695 h -17.137 v -17.695 c 0,-2.1289 -1.6797,-3.8086 -3.8086,-3.8086 h -15.68 c -2.0156,0 -3.8086,1.6797 -3.8086,3.8086 v 17.695 h -17.137 v -17.695 c 0,-2.1289 -1.6797,-3.8086 -3.8086,-3.8086 h -15.68 c -2.1289,0 -3.8086,1.6797 -3.8086,3.8086 v 35.617 c 0,4.5938 3.8086,8.3984 8.3984,8.3984 h 2.2383 l -2.2656,38.863 h -22.93 c -3.3594,0 -6.0469,2.6875 -6.0469,6.0469 v 9.5195 h -27.105 v -9.5195 c 0,-3.3594 -2.8008,-6.0469 -6.1602,-6.0469 h -9.9688 c -3.3594,0 -6.1602,2.6875 -6.1602,6.0469 v 9.5195 h -23.52 v -9.5195 c 0,-1.5664 -0.67188,-2.9102 -1.5664,-4.0312 l -9.0703,-120.4 h 13.441 c 3.8086,0 6.9453,-3.0234 6.9453,-6.9453 v -29.23 c 0,-1.6797 -1.3438,-3.1367 -3.1367,-3.1367 h -12.879 c -1.793,0 -3.1367,1.457 -3.1367,3.1367 v 14.559 h -22.625 v -14.559 c 0,-1.6797 -1.457,-3.1367 -3.1367,-3.1367 h -12.879 c -1.6797,0 -3.1367,1.457 -3.1367,3.1367 v 14.559 h -22.625 v -14.559 c 0,-1.6797 -1.3438,-3.1367 -3.1367,-3.1367 h -12.879 c -1.6797,0 -3.1367,1.457 -3.1367,3.1367 v 29.23 c 0,3.9219 3.1367,6.9453 6.9453,6.9453 h 13.551 l -9.1836,121.97 c -0.33594,0.67187 -0.55859,1.5664 -0.55859,2.4648 v 5.0391 l -0.33594,4.4805 h -24.191 v -9.5195 c 0,-3.3594 -2.6875,-6.0469 -6.0469,-6.0469 h -10.078 c -3.3594,0 -6.0469,2.6875 -6.0469,6.0469 v 9.5195 h -27.215 v -9.5195 c 0,-3.3594 -2.6875,-6.0469 -5.9375,-6.0469 h -23.047 l -2.2656,-38.863 h 2.2383 c 4.5938,0 8.3984,-3.8086 8.3984,-8.3984 v -35.617 c 0,-2.1289 -1.6797,-3.8086 -3.8086,-3.8086 h -15.68 c -2.1289,0 -3.8086,1.6797 -3.8086,3.8086 v 17.695 l -17.141,-0.004 v -17.695 c 0,-2.1289 -1.793,-3.8086 -3.8086,-3.8086 h -15.68 c -2.1289,0 -3.8086,1.6797 -3.8086,3.8086 v 17.695 h -17.133 v -17.695 c 0,-2.1289 -1.6797,-3.8086 -3.8086,-3.8086 h -15.793 c -2.0156,0 -3.8086,1.6797 -3.8086,3.8086 v 35.617 c 0,4.5938 3.8086,8.3984 8.5117,8.3984 h 2.1289 l -14.336,245.84 h -16.352 c -5.6016,0 -10.305,4.7031 -10.305,10.414 0,5.7109 4.7031,10.305 10.305,10.305 h 517.11 c 5.6016,0 10.191,-4.5938 10.191,-10.305 0,-5.7112 -4.5938,-10.414 -10.191,-10.414 z M 145.6,278.6 c 0,-10.078 8.0625,-18.145 18.031,-18.145 10.078,0 18.145,8.0625 18.145,18.145 v 43.121 L 145.6,321.717 Z m 45.359,173.38 h -54.434 v -41.441 c 0,-14.895 12.098,-27.105 27.105,-27.105 15.121,0 27.328,12.207 27.328,27.105 z m 224.99,0 h -130 v -69.73 c 0,-35.949 29.09,-65.039 64.953,-65.039 35.949,0 65.039,29.09 65.039,65.039 z M 520.129,278.6 c 0,-10.078 8.0625,-18.145 18.031,-18.145 10.078,0 18.145,8.0625 18.145,18.145 v 43.121 h -36.176 z m 45.246,173.38 h -54.434 v -41.441 c 0,-14.895 12.207,-27.105 27.215,-27.105 15.121,0 27.215,12.207 27.215,27.105 z"
       id="path40"
       inkscape:connector-curvature="0" />
  </g>
  <text
     xml:space="preserve"
     style="font-style:normal;font-weight:normal;font-size:30px;line-height:1.25;font-family:sans-serif;letter-spacing:0px;word-spacing:0px;fill:#000000;fill-opacity:1;stroke:none;stroke-width:0.75"
     x="387.69131"
     y="662.95996"
     id="text902"><tspan
       sodipodi:role="line"
       id="tspan900"
       x="387.69131"
       y="662.95996"
       style="font-style:normal;font-variant:normal;font-weight:normal;font-stretch:normal;font-size:150px;font-family:'aaaiight!';-inkscape-font-specification:'aaaiight!';stroke-width:0.75">Awesome Citadel</tspan></text>
  <g
     inkscape:groupmode="layer"
     id="layer1"
     inkscape:label="Layer 1" />
</svg>
